<svg width="116" height="27" viewBox="0 0 116 27" fill="none" xmlns="http://www.w3.org/2000/svg">
<g clip-path="url(#clip0_2121_33)">
<path d="M18.9934 14.1281C21.615 13.1202 23.4808 10.5826 23.4808 7.60698C23.4808 3.74951 20.1452 0.569946 16.2878 0.569946H3.01158L0.0719901 18.2915C0.0719901 18.2915 0.0839884 18.3275 0.107985 18.3875C0.035995 18.7834 0 19.1854 0 19.5993C0 23.4568 3.12557 26.5884 6.98904 26.5884C7.10302 26.5884 7.21101 26.5884 7.31899 26.5884L7.33099 26.6004H7.34299H7.49897H12.2863C12.8022 26.6004 14.308 26.5884 14.59 26.5884C18.4475 26.5884 21.579 23.4628 21.579 19.5993C21.579 17.3856 20.5892 15.4119 18.9934 14.1281ZM13.6421 18.1955C13.6181 19.1974 12.7902 19.9833 11.7884 19.9593H7.73893L8.33885 16.3058H11.8784C12.8802 16.3298 13.6661 17.1577 13.6421 18.1595V18.1955ZM13.3302 10.6126H9.28072L9.88064 6.95906H13.4201C14.422 6.98306 15.2079 7.81095 15.1839 8.81281V8.8488C15.1599 9.85067 14.332 10.6366 13.3302 10.6126Z" fill="#0F0F0F"/>
<path d="M33.1043 20.2772C31.9284 20.2772 31.3405 19.5933 31.3405 18.2195C31.3405 17.9495 31.3525 17.7396 31.3765 17.5956H44.4667C44.5627 17.3256 44.7007 16.7857 44.8686 15.9758C45.0186 15.1659 45.0906 14.41 45.0906 13.6961C45.0906 11.1705 44.2807 9.17875 42.6609 7.72095C41.0412 6.26315 38.8635 5.53125 36.1158 5.53125C34.0581 5.53125 32.1504 5.96319 30.3986 6.82107C28.6469 7.67895 27.1831 8.90878 26.0072 10.5166C24.8314 12.1243 24.0455 14.0021 23.6556 16.1618C23.5056 16.9717 23.4336 17.7576 23.4336 18.5135C23.4336 21.1111 24.2375 23.1388 25.8393 24.5966C27.447 26.0544 29.6187 26.7863 32.3664 26.7863C34.0821 26.7863 35.7199 26.4504 37.2737 25.7725C38.8275 25.1005 40.1833 24.1767 41.3351 23.0128C42.487 21.849 43.3328 20.5292 43.8728 19.0594H35.234C34.718 19.8693 34.0101 20.2712 33.1043 20.2712V20.2772ZM34.982 11.9324C35.5459 11.9324 36.0139 12.0823 36.3798 12.3763C36.7458 12.6703 36.9317 13.1142 36.9317 13.7021C36.9317 13.9481 36.9197 14.1341 36.8957 14.254H32.0064C32.5223 12.7123 33.5122 11.9384 34.982 11.9384V11.9324Z" fill="#0F0F0F"/>
<path d="M57.1177 0.491943H48.9588L44.3574 26.5283H60.3932L61.701 19.0354H53.8301L57.1177 0.491943Z" fill="#0F0F0F"/>
<path d="M62.1387 26.5284H70.3035L73.0572 9.76068H64.8923L62.1387 26.5284Z" fill="#0F0F0F"/>
<path d="M113.571 7.72095C111.951 6.26315 109.774 5.53125 107.026 5.53125C104.968 5.53125 103.061 5.96319 101.309 6.82107C99.557 7.67895 98.0932 8.90878 96.9174 10.5166C95.7416 12.1243 94.9557 14.0021 94.5657 16.1618C94.4157 16.9717 94.3438 17.7576 94.3438 18.5135C94.3438 21.1111 95.1476 23.1388 96.7494 24.5966C98.3572 26.0544 100.529 26.7863 103.277 26.7863C104.992 26.7863 106.63 26.4504 108.184 25.7725C109.738 25.1005 111.093 24.1767 112.245 23.0128C113.397 21.849 114.243 20.5292 114.783 19.0594H106.144C105.628 19.8693 104.92 20.2712 104.008 20.2712C102.833 20.2712 102.245 19.5873 102.245 18.2135C102.245 17.9435 102.257 17.7336 102.281 17.5896H115.371C115.467 17.3196 115.605 16.7797 115.773 15.9698C115.923 15.1599 115.995 14.404 115.995 13.6901C115.995 11.1645 115.185 9.17275 113.565 7.71495L113.571 7.72095ZM107.8 14.248H102.911C103.426 12.7063 104.416 11.9324 105.886 11.9324C106.45 11.9324 106.918 12.0823 107.284 12.3763C107.65 12.6703 107.836 13.1142 107.836 13.7021C107.836 13.9481 107.824 14.1341 107.8 14.254V14.248Z" fill="#0F0F0F"/>
<path d="M88.668 5.54921L83.1187 18.4234C83.0827 18.5134 82.9507 18.4894 82.9387 18.3934L82.3268 13.2881L81.9129 9.83862L81.9009 9.74263H80.4731C80.4731 9.74263 80.4491 9.74263 80.4311 9.74263C76.5736 9.74263 74.5879 12.8622 74.5879 16.7197C74.5879 17.1036 74.6179 17.4816 74.6779 17.8475V17.8715L76.4716 26.4383C76.4776 26.4863 76.5196 26.5163 76.5616 26.5163H86.6102C86.6462 26.5163 86.6762 26.4983 86.6942 26.4683L97.2588 5.78318L97.3907 5.54321H88.65L88.668 5.54921Z" fill="#0F0F0F"/>
<path d="M69.9691 8.07489C72.1989 8.07489 74.0065 6.26726 74.0065 4.03744C74.0065 1.80762 72.1989 0 69.9691 0C67.7393 0 65.9316 1.80762 65.9316 4.03744C65.9316 6.26726 67.7393 8.07489 69.9691 8.07489Z" fill="#0F0F0F"/>
</g>
<defs>
<clipPath id="clip0_2121_33">
<rect width="116" height="26.7863" fill="white"/>
</clipPath>
</defs>
</svg>
