<svg width="1000" height="400" viewBox="0 0 1000 400" fill="none" xmlns="http://www.w3.org/2000/svg">
<g clip-path="url(#clip0_2032_369)">
<path d="M230.989 204.902C249.069 197.99 261.936 180.584 261.936 160.175C261.936 133.717 238.933 111.909 212.329 111.909H120.77L100.496 233.459C100.496 233.459 100.579 233.706 100.745 234.117C100.248 236.833 100 239.59 100 242.429C100 268.887 121.556 290.366 148.2 290.366C148.986 290.366 149.731 290.366 150.476 290.366L150.559 290.448H150.641H151.717H184.733C188.291 290.448 198.676 290.366 200.621 290.366C227.224 290.366 248.821 268.928 248.821 242.429C248.821 227.246 241.994 213.708 230.989 204.902ZM194.084 232.8C193.918 239.672 188.209 245.062 181.299 244.898H153.372L157.509 219.839H181.92C188.829 220.004 194.249 225.682 194.084 232.554V232.8ZM191.932 180.79H164.005L168.142 155.731H192.553C199.462 155.896 204.882 161.574 204.717 168.446V168.693C204.551 175.564 198.842 180.955 191.932 180.79Z" fill="#F5F3EF"/>
<path d="M328.299 247.079C320.19 247.079 316.136 242.388 316.136 232.965C316.136 231.113 316.218 229.673 316.384 228.686H406.661C407.323 226.834 408.275 223.131 409.433 217.576C410.467 212.021 410.964 206.836 410.964 201.94C410.964 184.617 405.378 170.956 394.208 160.957C383.037 150.958 368.018 145.938 349.069 145.938C334.878 145.938 321.721 148.901 309.64 154.785C297.559 160.669 287.464 169.104 279.354 180.132C271.245 191.159 265.825 204.038 263.136 218.851C262.102 224.406 261.605 229.797 261.605 234.981C261.605 252.798 267.149 266.706 278.196 276.705C289.284 286.704 304.261 291.724 323.211 291.724C335.043 291.724 346.338 289.419 357.054 284.77C367.77 280.161 377.12 273.824 385.064 265.842C393.008 257.859 398.841 248.807 402.565 238.726H342.987C339.429 244.28 334.547 247.037 328.299 247.037V247.079ZM341.249 189.842C345.139 189.842 348.366 190.871 350.889 192.887C353.413 194.903 354.696 197.948 354.696 201.981C354.696 203.668 354.613 204.943 354.448 205.766H320.728C324.286 195.192 331.113 189.884 341.249 189.884V189.842Z" fill="#F5F3EF"/>
<path d="M493.918 111.374H437.65L405.917 289.954H516.508L525.528 238.561H471.245L493.918 111.374Z" fill="#F5F3EF"/>
<path d="M528.548 289.954H584.857L603.848 174.947H547.538L528.548 289.954Z" fill="#F5F3EF"/>
<path d="M883.244 160.957C872.073 150.958 857.054 145.938 838.105 145.938C823.914 145.938 810.757 148.901 798.676 154.785C786.595 160.669 776.5 169.104 768.391 180.132C760.281 191.159 754.862 204.038 752.172 218.851C751.138 224.406 750.641 229.797 750.641 234.981C750.641 252.798 756.185 266.706 767.232 276.705C778.32 286.704 793.298 291.724 812.247 291.724C824.08 291.724 835.375 289.419 846.09 284.77C856.806 280.161 866.157 273.824 874.1 265.842C882.044 257.859 887.878 248.807 891.601 238.726H832.023C828.465 244.28 823.583 247.037 817.294 247.037C809.185 247.037 805.13 242.347 805.13 232.924C805.13 231.072 805.213 229.632 805.379 228.644H895.656C896.318 226.793 897.269 223.09 898.428 217.535C899.462 211.98 899.959 206.795 899.959 201.899C899.959 184.575 894.373 170.915 883.202 160.916L883.244 160.957ZM843.442 205.725H809.723C813.281 195.15 820.108 189.842 830.244 189.842C834.133 189.842 837.36 190.871 839.884 192.887C842.408 194.903 843.691 197.948 843.691 201.981C843.691 203.668 843.608 204.943 843.442 205.766V205.725Z" fill="#F5F3EF"/>
<path d="M711.502 146.062L673.231 234.364C672.983 234.981 672.073 234.817 671.99 234.158L667.77 199.142L664.915 175.482L664.832 174.824H654.985C654.985 174.824 654.82 174.824 654.696 174.824C628.093 174.824 614.398 196.22 614.398 222.678C614.398 225.312 614.605 227.904 615.019 230.414V230.579L627.389 289.337C627.431 289.666 627.72 289.872 628.01 289.872H697.311C697.559 289.872 697.766 289.749 697.89 289.543L770.749 147.666L771.659 146.021H711.378L711.502 146.062Z" fill="#F5F3EF"/>
<path d="M582.54 163.385C597.918 163.385 610.385 150.986 610.385 135.692C610.385 120.398 597.918 108 582.54 108C567.162 108 554.696 120.398 554.696 135.692C554.696 150.986 567.162 163.385 582.54 163.385Z" fill="#F5F3EF"/>
</g>
<defs>
<clipPath id="clip0_2032_369">
<rect width="800" height="183.724" fill="white" transform="translate(100 108)"/>
</clipPath>
</defs>
</svg>
