<svg width="32" height="32" viewBox="0 0 32 32" fill="none" xmlns="http://www.w3.org/2000/svg">
<g id="LogoMark - Dark Grey" clip-path="url(#clip0_2607_19)">
<path id="Vector" d="M28.6016 15.9669C30.672 14.314 31.9997 11.7718 31.9997 8.91858C32 3.99368 28.0418 0.0893072 23.1328 0L8.87961 0.00375726C3.96228 0.0835268 0 4.08761 0 9.01887V32H18.0567C18.0567 32 22.7041 31.9997 22.9566 31.9997C27.9428 31.9997 32 27.9956 32 23.0147C32 20.1609 30.6723 17.6192 28.6019 15.9666L28.6016 15.9669ZM12.9252 23.6788C11.3701 24.2517 9.64516 23.4563 9.07201 21.9028L5.23993 11.5163C4.66678 9.96281 5.463 8.23967 7.01811 7.66712C8.57293 7.09486 10.2982 7.88967 10.8713 9.44315L14.7031 19.8297C15.2763 21.3831 14.4803 23.1063 12.9252 23.6788ZM23.9421 26.2895C22.387 26.8624 20.662 26.067 20.0889 24.5135L16.2568 14.127C15.6836 12.5741 16.4796 10.8504 18.0347 10.2778C19.5898 9.70558 21.315 10.5004 21.8879 12.0539L25.7197 22.4404C26.2928 23.9939 25.4969 25.717 23.9418 26.2895H23.9421Z" fill="#0F0F0F"/>
</g>
<defs>
<clipPath id="clip0_2607_19">
<rect width="32" height="32" fill="white"/>
</clipPath>
</defs>
</svg>
