<svg width="44" height="44" viewBox="0 0 44 44" fill="none" xmlns="http://www.w3.org/2000/svg">
<path id="Vector" d="M39.3272 21.9545C42.174 19.6818 43.9996 16.1862 43.9996 12.263C44 5.49131 38.5574 0.122797 31.8076 0L12.2095 0.00516623C5.44813 0.114849 0 5.62046 0 12.4009V44H24.8279C24.8279 44 31.2181 43.9996 31.5654 43.9996C38.4214 43.9996 44 38.494 44 31.6452C44 27.7212 42.1744 24.2264 39.3276 21.9541L39.3272 21.9545ZM17.7722 32.5584C15.6339 33.346 13.2621 32.2524 12.474 30.1164L7.2049 15.8349C6.41682 13.6989 7.51162 11.3295 9.6499 10.5423C11.7878 9.75544 14.16 10.8483 14.9481 12.9843L20.2168 27.2658C21.0049 29.4018 19.9105 31.7711 17.7722 32.5584ZM32.9203 36.1481C30.7821 36.9358 28.4103 35.8421 27.6222 33.7061L22.3531 19.4246C21.565 17.2894 22.6594 14.9193 24.7977 14.132C26.9359 13.3452 29.3081 14.438 30.0958 16.5741L35.3645 30.8555C36.1526 32.9916 35.0582 35.3609 32.9199 36.1481H32.9203Z" fill="#0F0F0F"/>
</svg>
